<svg width="281" height="282" viewBox="0 0 281 282" fill="none" xmlns="http://www.w3.org/2000/svg">
<path d="M280.786 141.095C280.786 177.304 266.773 212.108 241.682 238.214C216.591 264.32 182.37 279.702 146.189 281.138C110.008 282.573 74.6763 269.95 47.596 245.914C20.5156 221.878 3.78872 188.293 0.920129 152.198C-1.94846 116.103 9.26389 80.2982 32.2078 52.2862C55.1517 24.2743 88.0466 6.22917 124 1.93192C159.953 -2.36533 196.174 7.41881 225.073 29.2342C253.973 51.0496 273.308 83.2032 279.027 118.958L248.442 123.85C243.987 95.9972 228.925 70.9495 206.412 53.9552C183.899 36.961 155.683 29.3391 127.676 32.6867C99.6681 36.0342 74.0429 50.0914 56.1696 71.9128C38.2962 93.7341 29.5618 121.626 31.7964 149.744C34.0311 177.862 47.0614 204.025 68.157 222.749C89.2526 241.473 116.776 251.307 144.961 250.189C173.146 249.07 199.804 237.087 219.35 216.751C238.896 196.414 249.813 169.302 249.813 141.095H280.786Z" fill="url(#paint0_linear_104_66)"/>
<defs>
<linearGradient id="paint0_linear_104_66" x1="140.633" y1="0.941406" x2="140.633" y2="281.248" gradientUnits="userSpaceOnUse">
<stop stop-color="#15B9B9"/>
<stop offset="1" stop-color="#3C1DFF"/>
</linearGradient>
</defs>
</svg>
