<svg width="280" height="281" viewBox="0 0 280 281" fill="none" xmlns="http://www.w3.org/2000/svg">
<path d="M280 140.5C280 173.655 268.317 205.741 247.017 231.085C225.717 256.429 196.173 273.397 163.609 278.988C131.045 284.579 97.5606 278.433 69.0768 261.637C40.593 244.841 18.9455 218.477 7.96266 187.208C-3.02014 155.939 -2.63051 121.779 9.06265 90.7709C20.7558 59.7624 42.9991 33.9027 71.8585 17.7655C100.718 1.62823 134.334 -3.74686 166.762 2.59084C199.189 8.92853 228.339 26.5707 249.055 52.3971L224.954 71.8677C208.816 51.7489 186.109 38.0056 160.847 33.0685C135.586 28.1315 109.399 32.3187 86.9177 44.8896C64.4361 57.4606 47.1086 77.6053 37.9996 101.761C28.8906 125.917 28.5871 152.527 37.1427 176.886C45.6983 201.244 62.5618 221.782 84.7507 234.866C106.94 247.95 133.024 252.738 158.391 248.382C183.759 244.027 206.774 230.809 223.366 211.066C239.959 191.323 249.06 166.328 249.06 140.5H280Z" fill="url(#paint0_linear_104_65)"/>
<defs>
<linearGradient id="paint0_linear_104_65" x1="140" y1="0" x2="140" y2="281" gradientUnits="userSpaceOnUse">
<stop stop-color="#15B9B9"/>
<stop offset="1" stop-color="#3C1DFF"/>
</linearGradient>
</defs>
</svg>
